{"title":"Wall e 2008 greek audio metaglotismeno","uid":7494729,"size":1519706112,"categoryP":"video","categoryS":"movies","magnet":"?xt=urn:btih:fd1fa5cbb49d7b6286262d950c5db5b20155f50f&amp;dn=Wall+e+2008+greek+audio+metaglotismeno&amp;tr=udp%3A%2F%2Ftracker.openbittorrent.com%3A80&amp;tr=udp%3A%2F%2Fopen.demonii.com%3A1337&amp;tr=udp%3A%2F%2Ftracker.coppersurfer.tk%3A6969&amp;tr=udp%3A%2F%2Fexodus.desync.com%3A6969","seeders":2,"leechers":1,"uploader":null,"files":-1,"time":1343844190,"description":"To wall e metaglwtismeno sta ellhnika\n\nAuta ta bazoun oloi oi uploaders opote as ta balw kai egw... an breite akrh kalws\n\nGeneral\nComplete name : C:GAMERWall E.avi\nFormat : AVI\nFormat/Info : Audio Video Interleave\nFile size : 1.42 GiB\nDuration : 1h 33mn\nOverall bit rate : 2 169 Kbps\nWriting application : VirtualDubMod 1.5.10.2 (build 2540/release)\nWriting library : VirtualDubMod build 2540/release\n\nVideo\nID : 0\nFormat : MPEG-4 Visual\nFormat profile : Advanced Simple@L5\nFormat settings, BVOP : 1\nFormat settings, QPel : No\nFormat settings, GMC : No warppoints\nFormat settings, Matrix : Custom\nCodec ID : XVID\nCodec ID/Hint : XviD\nDuration : 1h 33mn\nBit rate : 1 778 Kbps\nWidth : 720 pixels\nHeight : 300 pixels\nDisplay aspect ratio : 2.40:1\nFrame rate : 25.000 fps\nColor space : YUV\nChroma subsampling : 4:2:0\nBit depth : 8 bits\nScan type : Progressive\nCompression mode : Lossy\nBits/(Pixel*Frame) : 0.329\nStream size : 1.16 GiB (82%)\nWriting library : XviD 1.2.0.dev47 (UTC 2006-11-01)\n\nAudio\nID : 1\nFormat : AC-3\nFormat/Info : Audio Coding 3\nMode extension : CM (complete main)\nFormat settings, Endianness : Big\nCodec ID : 2000\nDuration : 1h 32mn\nBit rate mode : Constant\nBit rate : 384 Kbps\nChannel(s) : 6 channels\nChannel positions : Front: L C R, Side: L R, LFE\nSampling rate : 48.0 KHz\nBit depth : 16 bits\nCompression mode : Lossy\nDelay relative to video : 824ms\nStream size : 254 MiB (18%)\nAlignment : Split accross interleaves\nInterleave, duration : 40 ms (1.01 video frame)\nInterleave, preload duration : 500 ms","torrent":{"xt":"urn:btih:fd1fa5cbb49d7b6286262d950c5db5b20155f50f","amp;dn":"Wall+e+2008+greek+audio+metaglotismeno","amp;tr":["udp%3A%2F%2Ftracker.openbittorrent.com%3A80","udp%3A%2F%2Fopen.demonii.com%3A1337","udp%3A%2F%2Ftracker.coppersurfer.tk%3A6969","udp%3A%2F%2Fexodus.desync.com%3A6969"],"infoHash":"fd1fa5cbb49d7b6286262d950c5db5b20155f50f","infoHashBuffer":{"type":"Buffer","data":[253,31,165,203,180,157,123,98,134,38,45,149,12,93,181,178,1,85,245,15]},"announce":[],"urlList":[]}}